<?xml version="1.0" encoding="utf-8"?>
<!-- Generator: Adobe Illustrator 19.2.1, SVG Export Plug-In . SVG Version: 6.00 Build 0)  -->
<svg version="1.1" id="Layer_1" xmlns="http://www.w3.org/2000/svg" xmlns:xlink="http://www.w3.org/1999/xlink" x="0px" y="0px"
	 viewBox="0 0 403.2 386.5" style="enable-background:new 0 0 403.2 386.5;" xml:space="preserve">
<style type="text/css">
	.st0{fill:#FFFFFF;stroke:#F3F3F3;stroke-width:10;stroke-miterlimit:10;}
	.st1{fill:#F3F3F3;}
	.st2{fill:#D4B783;}
	.st3{fill:#A67D52;}
	.st4{fill:#010101;}
	.st5{fill:#FFFFFF;stroke:#4E4E4E;stroke-width:2;stroke-miterlimit:10;}
	.st6{fill:none;stroke:#4E4E4E;stroke-width:2;stroke-miterlimit:10;}
	.st7{fill:none;stroke:#B4B4B4;stroke-miterlimit:10;}
	.st8{fill:#59C6CE;}
	.st9{fill:none;stroke:#010101;stroke-width:2;stroke-miterlimit:10;}
	.st10{fill:#676767;}
	.st11{font-family:'OpenSans-Bold';}
	.st12{font-size:14.304px;}
	.st13{font-family:'TypoRoundBoldDemo';}
	.st14{font-size:24.2067px;}
	.st15{fill:#FFFFFF;}
	.st16{font-family:'TypoRoundRegularDemo';}
	.st17{font-size:19.457px;}
</style>
<circle class="st0" cx="227" cy="199.1" r="133.3"/>
<circle class="st1" cx="91.3" cy="192.6" r="63"/>
<path class="st2" d="M66.3,211.4l-9.7,9.7c-1.2,1.2-1.2,3.1,0,4.2c0.2,0.2,0.3,0.3,0.5,0.4L69,214.1L66.3,211.4z"/>
<path class="st3" d="M115.1,186.8c3-9.7,1.1-23.7-17.3-25.4c-3.6,0.9-6.9,2.7-9.5,5.4l-23.5,23.5c-1.5,1.5-2.4,3.6-2.4,5.8
	s0.9,4.2,2.4,5.8l16.4,16.4c0.6,0.6,1.4,1.2,2.2,1.6C89.2,214.5,113.3,192.6,115.1,186.8z M94,172.5c-0.4,0.4-0.8,0.5-1.3,0.5
	c-0.5,0-0.9-0.2-1.3-0.5c-0.7-0.7-0.7-1.9,0-2.6c2.9-2.9,6.8-4.5,10.9-4.6c4.1,0,8,1.5,10.8,4.4c0.7,0.7,0.7,1.9,0,2.6
	c-0.7,0.7-1.9,0.7-2.6,0c-2.2-2.2-5.1-3.4-8.2-3.4C99.2,169.1,96.2,170.3,94,172.5z"/>
<path class="st4" d="M118.9,164c-4.4-4.4-10.3-6.8-16.5-6.8c0,0-0.1,0-0.1,0c-6.3,0-12.2,2.5-16.7,7l-23.5,23.5
	c-2.2,2.2-3.5,5.2-3.5,8.4s1.2,6.1,3.5,8.4l3.5,3.5l-10,10c-2.6,2.6-2.6,6.9,0,9.5c1.3,1.3,3,2,4.7,2c1.7,0,3.4-0.7,4.7-2l10-10
	l3.5,3.5c2.2,2.2,5.2,3.5,8.4,3.5c3.2,0,6.1-1.2,8.4-3.5l23.5-23.5c4.5-4.5,6.9-10.4,7-16.7C125.8,174.4,123.4,168.5,118.9,164z
	 M62.5,224.8c-1,1-2.6,1.2-3.8,0.4c-0.2-0.1-0.4-0.3-0.5-0.4c-1.2-1.2-1.2-3.2,0-4.4l10-10l2.8,2.8l1.6,1.6L62.5,224.8z
	 M116.2,194.8l-23.5,23.5c-1.5,1.5-3.6,2.4-5.8,2.4c-1.3,0-2.5-0.3-3.6-0.8c-0.8-0.4-1.5-0.9-2.2-1.6l-16.4-16.4
	c-1.5-1.5-2.4-3.6-2.4-5.8s0.9-4.2,2.4-5.8l23.5-23.5c2.7-2.7,6-4.5,9.5-5.4c1.5-0.4,3-0.5,4.6-0.6c0,0,0.1,0,0.1,0
	c5.3,0,10.2,2,13.9,5.8c3.7,3.7,5.8,8.7,5.8,14C122.1,186,120,191,116.2,194.8z"/>
<path class="st4" d="M113.2,172.4c0.7-0.7,0.7-1.9,0-2.6c-2.9-2.9-6.7-4.4-10.8-4.4c-4.1,0-8,1.7-10.9,4.6c-0.7,0.7-0.7,1.9,0,2.6
	c0.4,0.4,0.8,0.5,1.3,0.5c0.5,0,0.9-0.2,1.3-0.5c2.2-2.2,5.2-3.5,8.3-3.5c3.1,0,6.1,1.2,8.2,3.4
	C111.3,173.1,112.4,173.1,113.2,172.4z"/>
<g>
	<path class="st5" d="M381,354.9c0,3.9-3.1,7-7,7H204c-3.9,0-7-3.1-7-7v-325c0-3.9,3.1-7,7-7h170c3.9,0,7,3.1,7,7V354.9z"/>
	<line class="st6" x1="198" y1="56.9" x2="382" y2="56.9"/>
	<line class="st6" x1="199" y1="323.9" x2="381" y2="323.9"/>
	<path class="st7" d="M334.5,41.5c0,1.6-1.3,2.9-2.9,2.9h-83.1c-1.6,0-2.9-1.3-2.9-2.9v-4.1c0-1.6,1.3-2.9,2.9-2.9h83.1
		c1.6,0,2.9,1.3,2.9,2.9V41.5z"/>
	<path class="st7" d="M237.5,41.5c0,1.6-1.3,2.9-2.9,2.9h-4.1c-1.6,0-2.9-1.3-2.9-2.9v-4.1c0-1.6,1.3-2.9,2.9-2.9h4.1
		c1.6,0,2.9,1.3,2.9,2.9V41.5z"/>
	<path class="st7" d="M300.5,349.5c0,1.6-1.3,2.9-2.9,2.9h-14.1c-1.6,0-2.9-1.3-2.9-2.9v-14.1c0-1.6,1.3-2.9,2.9-2.9h14.1
		c1.6,0,2.9,1.3,2.9,2.9V349.5z"/>
	<circle class="st7" cx="219.4" cy="39.7" r="2.9"/>
	<path class="st8" d="M350,303.3c0,2-1.6,3.7-3.7,3.7H233.6c-2,0-3.7-1.6-3.7-3.7v-18.7c0-2,1.6-3.7,3.7-3.7h112.7
		c2,0,3.7,1.6,3.7,3.7V303.3z"/>
	<path class="st9" d="M347,300.3c0,2-1.6,3.7-3.7,3.7H230.6c-2,0-3.7-1.6-3.7-3.7v-18.7c0-2,1.6-3.7,3.7-3.7h112.7
		c2,0,3.7,1.6,3.7,3.7V300.3z"/>
	<g>
		<path class="st10" d="M271,153.4c0-0.2-0.2-0.5-0.5-0.5h-3.3l-1.7-17.4c-0.4-3.7-3.5-6.6-7.2-6.6h-2c-0.9-1-2-0.8-3.3-0.8
			s-2.4-0.2-3.3,0.8h-2c-3.8,0-6.9,2.8-7.2,6.6l-1.7,17.4h-3.3c-0.3,0-0.5,0.2-0.7,0.4c-0.1,0.2-0.2,0.6,0,0.8l1.6,3.3
			c0.1,0.3,0.4,0.5,0.7,0.5h31.9c0.3,0,0.6-0.2,0.7-0.5l1.5-3.2C271.2,154,271,153.7,271,153.4L271,153.4z M241,135.6
			c2-2.9,3.7-5.7,6.6-5.7h0.3c-0.4,1-0.6,1.9-0.6,2.8c0,0.4,0.4,1,0.8,1s0.8-0.3,0.8-0.7c0-2.4,2.1-3.1,4-3.1s4,0.9,4,3.2
			c0,0.4,0.4,0.8,0.8,0.8c0.4,0,0.8-0.7,0.8-1.2c0-0.9-0.2-1.8-0.6-2.8h0.3c2.9,0,5.4,2.5,5.7,5.4l1.7,17.6h-25.4l0.7-17.2V135.6z
			 M268.4,155.9h-31l-0.8-2h32.6L268.4,155.9z"/>
		<path class="st10" d="M258,135.5c-0.4,0-1,0.4-1,0.8v10.4c0,0.4,0.6,0.8,1,0.8c0.4,0,1-0.4,1-0.8v-10.4
			C259,135.8,258.4,135.5,258,135.5z"/>
		<path class="st10" d="M248.5,135.5c-0.4,0-0.5,0.4-0.5,0.8v10.4c0,0.4,0.1,0.8,0.5,0.8s0.5-0.4,0.5-0.8v-10.4
			C249,135.8,248.9,135.5,248.5,135.5z"/>
		<path class="st10" d="M258,149c-0.4,0-1,0.4-1,0.8v1.6c0,0.4,0.6,0.8,1,0.8c0.4,0,1-0.4,1-0.8v-1.6C259,149.4,258.4,149,258,149z"
			/>
		<path class="st10" d="M248.5,149c-0.4,0-0.5,0.4-0.5,0.8v1.6c0,0.4,0.1,0.8,0.5,0.8s0.5-0.4,0.5-0.8v-1.6
			C249,149.4,248.9,149,248.5,149z"/>
	</g>
	<path class="st10" d="M265.4,206.3c-0.1-0.2-0.4-0.3-0.6-0.3c-0.2,0-0.5-0.1-0.7-0.1c0.4-0.7,0.6-1.4,0.6-2.2c0-2.5-2-4.6-4.5-4.6
		c0.1-0.2,0.2-0.5,0.3-0.7c0.1-0.2,0.1-0.5,0-0.7c-0.1-0.2-0.3-0.4-0.5-0.4c-2.4-0.6-5,0-6.9,1.5c-1.4-1.2-3.1-1.8-5-1.8
		c-2.1,0-4.1,0.8-5.5,2.3c-1.5,1.5-2.3,3.4-2.3,5.5s1.2,4.1,2.7,5.5l7.1,6.7v12.8c0,2.1,1.4,3.8,3.5,3.8c2.1,0,3.5-1.7,3.5-3.8V217
		l6.6-6.7c0.9-0.9,1.6-2.1,2-3.4C265.6,206.7,265.6,206.5,265.4,206.3z M260.1,200.6c1.7,0,3,1.4,3,3c0,0.6-0.2,1.1-0.5,1.6
		c-1.6-0.9-2.7-2.6-2.7-4.6c0,0,0,0,0,0C260,200.6,260,200.6,260.1,200.6z M253,232c-1.2,0-2-1-2-2.2v-11.3c1,0.4,1.2,0.7,2,0.7
		c0.8,0,2-0.2,2-0.7v11.3C255,231,254.2,232,253,232z M262.4,209.2l-7.6,7.6c-0.5,0.5-1.1,0.7-1.7,0.7c-0.7,0-1.3-0.3-1.7-0.7
		l-7.6-7.6c-1.2-1.2-1.8-2.7-1.8-4.4c0-1.7,0.6-3.2,1.8-4.4c1.2-1.2,2.7-1.8,4.4-1.8c1.7,0,3.2,0.6,4.4,1.8c0.3,0.3,0.8,0.3,1.1,0
		c1.3-1.3,3.2-2,5-1.8c-0.2,0.7-0.3,1.4-0.3,2.1c0,1.8,0.7,3.4,1.9,4.7c0.9,1,2.2,1.7,3.5,2C263.4,208.1,262.9,208.7,262.4,209.2z"
		/>
	<path class="st10" d="M338.1,208.3c0-2.5-1.8-4.6-4.2-5.1c-0.5-3.5-3.6-6.3-7.2-6.3c-3.7,0-6.7,2.7-7.2,6.3
		c-2.4,0.5-4.4,2.6-4.4,5.1c0,2.5,1.9,4.6,3.9,5.1v1.2c0,1.2,0.9,2.3,2,2.7l4.6,12.1c0.2,0.4,0.6,0.7,1.1,0.7c0.5,0,0.9-0.3,1.1-0.7
		l5.9-16C336.2,213.1,338.1,210.9,338.1,208.3z M326.7,225.8l-3-8.3c1.2-0.4,2.2-1.5,2.2-2.9v-1.2c0,0,0.5,0.1,0.8,0.1
		c1.2,0,2.3-0.3,3.2-0.9c0.4,0.3,0.9,0.5,1.4,0.7L326.7,225.8z M332.9,211.3c-0.8,0-1.5-0.3-2.1-0.9c-0.4-0.4-1.1-0.4-1.6,0
		c-0.6,0.6-1.5,0.9-2.5,0.9c-0.6,0-1.1-0.1-1.6-0.3c-0.3-0.2-1-0.1-1.3,0.1c-0.3,0.2-0.8,0.6-0.8,0.9v2.7c0,0.4,0.2,0.3-0.2,0.3
		h-0.4c-0.4,0-0.4,0.1-0.4-0.3v-2.2c0-0.6-0.7-1.1-1.3-1.1c-1.6,0-3.1-1.3-3.1-3c0-1.6,1.3-3,2.9-3c0.6,0,1.1-0.5,1.1-1.1
		c0-2.8,2.3-5,5-5s5,2.3,5,5c0,0.6,0.5,1.1,1.1,1.1c1.6,0,3,1.3,3,3C335.8,209.9,334.5,211.3,332.9,211.3z"/>
	<g>
		<path class="st10" d="M341.6,138.1c0-0.8-0.6-1.2-1.4-1.2h-1.5c-0.1-7-5.4-11.5-11.9-11.5c-6.5,0-11.7,4.5-11.9,11.5h-1.7
			c-0.8,0-1.6,0.4-1.6,1.2c0,7.6,6.4,13.6,13.4,14.4v5.4h-5.4c-0.8,0-1.5,0.7-1.5,1.5s0.7,1.5,1.5,1.5h14.3c0.8,0,1.5-0.7,1.5-1.5
			s-0.7-1.5-1.5-1.5H328v-5.4C336,151.8,341.6,145.8,341.6,138.1z M326.8,128.5c4.8,0,8.7,2.5,8.9,8.5h-17.7
			C318,130.9,322,128.5,326.8,128.5z M315,139.9h23.6c-0.8,5-5.7,10-11.8,10c-6.1,0-10.8-4.5-11.8-10.3V139.9z"/>
	</g>
	<text transform="matrix(1 0 0 1 244.7375 180.8767)" class="st10 st11 st12">$5</text>
	<text transform="matrix(1 0 0 1 240.6555 249.8186)" class="st10 st11 st12">$16</text>
	<text transform="matrix(1 0 0 1 314.4407 180.8767)" class="st10 st11 st12">$12</text>
	<text transform="matrix(1 0 0 1 314.4407 249.8186)" class="st10 st11 st12">$22</text>
	<text transform="matrix(1 0 0 1 232.177 100.2302)" class="st10 st13 st14">HELADERÍA</text>
	<text transform="matrix(1 0 0 1 251.0032 298.7971)" class="st15 st16 st17">DELIVERY</text>
</g>
</svg>
