<?xml version="1.0" encoding="utf-8"?>
<!-- Generator: Adobe Illustrator 19.2.1, SVG Export Plug-In . SVG Version: 6.00 Build 0)  -->
<svg version="1.1" id="Layer_1" xmlns="http://www.w3.org/2000/svg" xmlns:xlink="http://www.w3.org/1999/xlink" x="0px" y="0px"
	 viewBox="0 0 200 200" style="enable-background:new 0 0 200 200;" xml:space="preserve">
<style type="text/css">
	.st0{fill:#FFFFFF;}
</style>
<g>
	<path class="st0" d="M199.4,114.1l-12.8-23.3c-3.6-6.6-10.5-10.7-18-10.7h-26.7V40c0-2.7-2.2-4.9-4.9-4.9H4.9C2.2,35.1,0,37.3,0,40
		v107.9c0,2.7,2.2,4.9,4.9,4.9h14.5c2.1,7,8.6,12.1,16.3,12.1s14.2-5.1,16.3-12.1H137h10.3c2.1,7,8.6,12.1,16.3,12.1
		s14.2-5.1,16.3-12.1h15.2c2.7,0,4.9-2.2,4.9-4.9v-31.5C200,115.6,199.8,114.8,199.4,114.1L199.4,114.1z M9.7,44.8h122.5V143H51.9
		c-2.1-7-8.6-12.1-16.3-12.1S21.4,136,19.3,143H9.7L9.7,44.8z M42.9,147.9c0,4-3.3,7.3-7.3,7.3s-7.3-3.3-7.3-7.3s3.3-7.3,7.3-7.3
		S42.9,143.8,42.9,147.9z M170.9,147.9c0,4-3.3,7.3-7.3,7.3c-4,0-7.3-3.3-7.3-7.3s3.3-7.3,7.3-7.3
		C167.7,140.6,170.9,143.8,170.9,147.9z M190.3,143h-10.4c-2.1-7-8.6-12.1-16.3-12.1s-14.2,5.1-16.3,12.1h-5.5V89.8h26.7
		c4,0,7.6,2.2,9.5,5.6l12.2,22.2L190.3,143L190.3,143z"/>
	<path class="st0" d="M59.6,86.4h34.5l-6.5,6.5c-1.9,1.9-1.9,5,0,6.9c0.9,0.9,2.2,1.4,3.4,1.4c1.2,0,2.5-0.5,3.4-1.4l13.5-13.5
		c2.6-2.6,2.6-6.9,0-9.5L94.4,63.3c-1.9-1.9-5-1.9-6.9,0c-1.9,1.9-1.9,5,0,6.9l6.5,6.5H59.6c-2.7,0-4.9,2.2-4.9,4.9
		C54.7,84.2,56.9,86.4,59.6,86.4L59.6,86.4z"/>
	<path class="st0" d="M47.4,124.6c0.9,0.9,2.2,1.4,3.4,1.4c1.2,0,2.5-0.5,3.4-1.4c1.9-1.9,1.9-5,0-6.9l-6.5-6.5h34.5
		c2.7,0,4.9-2.2,4.9-4.9c0-2.7-2.2-4.9-4.9-4.9H47.8l6.5-6.5c1.9-1.9,1.9-5,0-6.9c-1.9-1.9-5-1.9-6.9,0l-13.5,13.5
		c-1.3,1.3-2,3-2,4.7c0,1.8,0.7,3.5,2,4.7L47.4,124.6z"/>
</g>
</svg>
