<?xml version="1.0" encoding="utf-8"?>
<!-- Generator: Adobe Illustrator 19.2.1, SVG Export Plug-In . SVG Version: 6.00 Build 0)  -->
<svg version="1.1" id="Layer_1" xmlns="http://www.w3.org/2000/svg" xmlns:xlink="http://www.w3.org/1999/xlink" x="0px" y="0px"
	 viewBox="0 0 230 74" style="enable-background:new 0 0 230 74;" xml:space="preserve">
<style type="text/css">
	.st0{fill:url(#SVGID_1_);}
	.st1{fill:url(#SVGID_2_);}
	.st2{fill:url(#SVGID_3_);}
	.st3{fill:url(#SVGID_4_);}
	.st4{fill:url(#SVGID_5_);}
	.st5{fill:url(#SVGID_6_);}
	.st6{fill:url(#SVGID_7_);}
	.st7{fill:url(#SVGID_8_);}
	.st8{fill:url(#SVGID_9_);}
	.st9{fill:url(#SVGID_10_);}
	.st10{fill:url(#SVGID_11_);}
	.st11{fill:url(#SVGID_12_);}
	.st12{fill:url(#SVGID_13_);}
	.st13{fill:url(#SVGID_14_);}
	.st14{fill:#333E48;}
	.st15{fill:url(#SVGID_15_);}
	.st16{fill:url(#SVGID_16_);}
	.st17{fill:url(#SVGID_17_);}
	.st18{fill:url(#SVGID_18_);}
</style>
<g>
	<linearGradient id="SVGID_1_" gradientUnits="userSpaceOnUse" x1="19.7542" y1="44.3959" x2="24.9559" y2="34.6485">
		<stop  offset="0" style="stop-color:#F3A41E"/>
		<stop  offset="1" style="stop-color:#EC7E35"/>
	</linearGradient>
	<path class="st0" d="M29.5,25.4h-0.1c0.3,0,0.7,0.1,1,0.2C30.1,25.4,29.8,25.4,29.5,25.4z"/>
	<linearGradient id="SVGID_2_" gradientUnits="userSpaceOnUse" x1="25.6746" y1="29.3349" x2="34.0566" y2="45.9561">
		<stop  offset="0" style="stop-color:#E75471"/>
		<stop  offset="1" style="stop-color:#C31A7F"/>
	</linearGradient>
	<polygon class="st1" points="23.7,25.4 23.7,25.4 23.7,25.4 	"/>
	<linearGradient id="SVGID_3_" gradientUnits="userSpaceOnUse" x1="28.9994" y1="31.5884" x2="33.0125" y2="41.163">
		<stop  offset="0" style="stop-color:#C31A7F"/>
		<stop  offset="1" style="stop-color:#934D93"/>
	</linearGradient>
	<path class="st2" d="M40.7,46.3L33,27.9c-0.4-1-1.5-2-2.7-2.3c0.9,0.3,1.2,1.2,0.7,2.3l-4.6,10.9l3.1,7.5c0.6,1.3,2.2,2.7,3.7,2.7
		h5.8C40.6,49,41.3,47.7,40.7,46.3z"/>
	<linearGradient id="SVGID_4_" gradientUnits="userSpaceOnUse" x1="18.6307" y1="44.0785" x2="23.9302" y2="34.1479">
		<stop  offset="0" style="stop-color:#F3A41E"/>
		<stop  offset="1" style="stop-color:#EC7E35"/>
	</linearGradient>
	<path class="st3" d="M30.4,25.3c-0.3-0.1-0.7-0.3-1-0.3h-5.7c0,0,0,0,0,0L23,29h-0.7l4.2,9.9l4.6-11.1
		C31.6,26.7,31.2,25.7,30.4,25.3z"/>
	<linearGradient id="SVGID_5_" gradientUnits="userSpaceOnUse" x1="17.7666" y1="46.4791" x2="24.3206" y2="30.9015">
		<stop  offset="0" style="stop-color:#F3A41E"/>
		<stop  offset="1" style="stop-color:#EC7E35"/>
	</linearGradient>
	<path class="st4" d="M22.3,28.7l-0.4-0.9c-0.4-1-0.1-1.9,0.8-2.3c-1.1,0.3-2.2,1.2-2.7,2.3l-0.2,0.4l-7.5,18.1
		c-0.6,1.3,0.2,2.7,1.6,2.7h5.8c1.5,0,3.1-1.3,3.7-2.7l3.1-7.4L22.3,28.7z"/>
	<linearGradient id="SVGID_6_" gradientUnits="userSpaceOnUse" x1="25.211" y1="29.483" x2="33.4494" y2="45.8194">
		<stop  offset="0" style="stop-color:#E75471"/>
		<stop  offset="1" style="stop-color:#C31A7F"/>
	</linearGradient>
	<path class="st5" d="M22.7,25.5c0.3-0.1,0.7-0.2,1-0.2h0h-0.1C23.2,25.4,22.9,25.4,22.7,25.5z"/>
	<linearGradient id="SVGID_7_" gradientUnits="userSpaceOnUse" x1="21.7649" y1="28.0786" x2="22.7597" y2="26.2146">
		<stop  offset="0" style="stop-color:#E75471"/>
		<stop  offset="1" style="stop-color:#C31A7F"/>
	</linearGradient>
	<path class="st6" d="M22.7,25.5c0.3-0.1,0.7-0.2,1-0.2h0h-0.1C23.2,25.4,22.9,25.4,22.7,25.5z"/>
	<linearGradient id="SVGID_8_" gradientUnits="userSpaceOnUse" x1="14.5802" y1="42.4244" x2="19.9445" y2="32.3723">
		<stop  offset="0" style="stop-color:#F3A41E"/>
		<stop  offset="1" style="stop-color:#EC7E35"/>
	</linearGradient>
	<path class="st7" d="M21.9,27.9l0.4,1.1H23l0.7-3.5c-0.3,0-0.7,0.1-1,0.2C21.8,26,21.5,26.9,21.9,27.9z"/>
	<linearGradient id="SVGID_9_" gradientUnits="userSpaceOnUse" x1="24.4714" y1="30.1979" x2="33.0342" y2="47.1775">
		<stop  offset="0" style="stop-color:#E75471"/>
		<stop  offset="1" style="stop-color:#C31A7F"/>
	</linearGradient>
	<path class="st8" d="M21.9,27.9l0.4,1.1H23l0.7-3.5c-0.3,0-0.7,0.1-1,0.2C21.8,26,21.5,26.9,21.9,27.9z"/>
	<linearGradient id="SVGID_10_" gradientUnits="userSpaceOnUse" x1="43.0194" y1="30.9453" x2="38.8267" y2="45.5751">
		<stop  offset="0" style="stop-color:#0F9CC4"/>
		<stop  offset="1" style="stop-color:#0E74B4"/>
	</linearGradient>
	<path class="st9" d="M50.7,27.6c0.6-1.3-0.2-2.6-1.6-2.6h-5.8c-1.5,0-3.1,1.3-3.7,2.6l-7.7,18.6c-0.6,1.3,0.2,2.8,1.6,2.8h5.8
		c1.5,0,3.1-1.4,3.7-2.8L50.7,27.6z"/>
	<linearGradient id="SVGID_11_" gradientUnits="userSpaceOnUse" x1="56.0826" y1="47.2703" x2="46.0016" y2="27.1722">
		<stop  offset="0" style="stop-color:#DCDA21"/>
		<stop  offset="1" style="stop-color:#ADC637"/>
	</linearGradient>
	<path class="st10" d="M41.5,27.6c-0.6-1.3,0.2-2.6,1.6-2.6h5.8c1.5,0,3.1,1.3,3.7,2.6l7.7,18.6c0.6,1.3-0.2,2.8-1.6,2.8h-5.8
		c-1.5,0-3.1-1.4-3.7-2.8L41.5,27.6z"/>
	<linearGradient id="SVGID_12_" gradientUnits="userSpaceOnUse" x1="22.2507" y1="35.1315" x2="26.0354" y2="28.0393">
		<stop  offset="0" style="stop-color:#E75471"/>
		<stop  offset="1" style="stop-color:#C31A7F"/>
	</linearGradient>
	<path class="st11" d="M30.5,25.3c-0.3-0.1-0.8-0.3-1.1-0.3h-5.7c0,0,0,0,0,0c-0.3,0-0.7,0.2-1,0.3c-1.1,0.3-2.2,1.3-2.7,2.4
		l-0.2,0.5l0.1,0c0.3-0.3,0.7-0.5,1.1-0.5c0.7,0,1.2,0.5,1.4,1.1l4.2,10l4.7-11.1C31.7,26.7,31.3,25.7,30.5,25.3z"/>
	<linearGradient id="SVGID_13_" gradientUnits="userSpaceOnUse" x1="41.8266" y1="35.136" x2="45.5958" y2="28.073">
		<stop  offset="0" style="stop-color:#ADC637"/>
		<stop  offset="1" style="stop-color:#00AA96"/>
	</linearGradient>
	<path class="st12" d="M49.9,25.3c-0.3-0.1-0.7-0.3-1-0.3h-5.7c0,0,0,0,0,0c-0.3,0-0.7,0.2-1,0.3c-1.1,0.3-2.2,1.3-2.7,2.4l-0.2,0.5
		l0.1,0c0.3-0.3,0.7-0.5,1.1-0.5c0.7,0,1.2,0.5,1.4,1.1l4.2,10l4.6-11.1C51.1,26.7,50.8,25.7,49.9,25.3z"/>
	<linearGradient id="SVGID_14_" gradientUnits="userSpaceOnUse" x1="33.5173" y1="41.1399" x2="38.1798" y2="47.3144">
		<stop  offset="0" style="stop-color:#0E74B4"/>
		<stop  offset="1" style="stop-color:#934D93"/>
	</linearGradient>
	<path class="st13" d="M32.5,48.6c0.3,0.1,0.7,0.4,1,0.4h5.7c0,0,0,0,0,0c0.3,0,0.8-0.3,1.1-0.4c1.1-0.3,2.2-1.2,2.7-2.2l0.2-0.5
		l0.1-0.3c-0.3,0.3-1,0.7-1.4,0.7c-0.7,0-1.2-0.5-1.4-1.1l-4.2-9.6l-4.6,10.7C31.3,47.3,31.6,48.3,32.5,48.6z"/>
	<path class="st14" d="M70.5,46.8c0,1.4-0.7,2.2-2.2,2.2h-0.6c-1.4,0-2.2-0.8-2.2-2.2v-8.2c0-4.2,2.6-6.5,7.1-6.5
		c2.2,0,3.9,0.7,4.9,2.1c1-1.4,2.8-2.1,5-2.1c4.7,0,7.1,2.1,7.1,6.5v8.2c0,1.4-0.7,2.2-2.2,2.2h-0.6c-1.4,0-2.2-0.8-2.2-2.2v-8.2
		c0-1.8-0.3-2.5-2.4-2.5c-2.2,0-2.6,0.7-2.6,2.5v8.2c0,1.4-0.3,2.2-1.7,2.2h-0.5c-1.4,0-1.8-0.8-1.8-2.2v-8.2c0-1.8-0.3-2.5-2.5-2.5
		c-2.1,0-2.5,0.7-2.5,2.5V46.8z"/>
	<path class="st14" d="M90.5,41.8v-2.6c0-4.6,3-7.1,8-7.1c5.2,0,8,2.3,8,7.1v2.6c0,4.6-2.9,7.1-8,7.1C93.3,49,90.5,46.6,90.5,41.8z
		 M101.5,39.2c0-2.2-0.7-3.2-3.5-3.2c-2.7,0-3.5,1-3.5,3.2v2.6c0,2.2,0.8,3.2,3.5,3.2c2.7,0,3.5-1,3.5-3.2V39.2z"/>
	<path class="st14" d="M112.9,44c0.3,1.1,0.5,1.4,1.4,1.4c0.8,0,1.1-0.2,1.4-1.4l2.1-10c0.4-1.4,0.7-2,2.2-2h0.7
		c1.4,0,1.7,0.6,1.4,2l-2.4,10.3c-0.4,1.6-0.6,2.4-1.4,3.3c-0.7,0.9-2,1.3-4,1.3c-2,0-3.3-0.3-4.1-1.2c-0.7-0.9-1-1.6-1.4-3.3
		L106.4,34c-0.3-1.4,0-2,1.4-2h0.7c1.4,0,1.8,0.6,2.2,2L112.9,44z"/>
	<path class="st14" d="M123.7,25.9c1-1,2.5-1,3.5,0c1,1,1,2.5,0,3.5c-1,1-2.5,1-3.5,0C122.7,28.4,122.7,26.9,123.7,25.9z
		 M127.5,46.2c0,1-0.8,1.8-1.8,1.8h-0.4c-1,0-1.8-0.8-1.8-1.8V33.8c0-1,0.8-1.8,1.8-1.8h0.4c1,0,1.8,0.8,1.8,1.8V46.2z"/>
	<path class="st14" d="M129.5,27.8c0-1.4,0.6-1.8,2-1.8h0.6c1.4,0,1.4,0.4,1.4,1.8v14.9c0,1.6,0.8,2.2,1.8,2.2h0.2
		c0.9,0,1,0.2,1,1.4V47c0,1.3-0.2,1.6-1.1,1.8c-0.2,0-0.6,0.1-1.1,0.1c-2.9,0-4.9-1.7-4.9-5.2V27.8z"/>
	<path class="st14" d="M137.8,25.9c1-1,2.5-1,3.5,0c1,1,1,2.5,0,3.5c-1,1-2.5,1-3.5,0C136.8,28.4,136.8,26.9,137.8,25.9z
		 M141.5,46.2c0,1-0.8,1.8-1.8,1.8h-0.4c-1,0-1.8-0.8-1.8-1.8V33.8c0-1,0.8-1.8,1.8-1.8h0.4c1,0,1.8,0.8,1.8,1.8V46.2z"/>
	<path class="st14" d="M144.5,34.3c0-1.4,0-2.3,1.4-2.3h7.1c3.1,0,4,1.3,4,3.9c0,1.1-0.2,2-0.5,2.7c-0.4,0.6-1.1,1.3-2.3,1.9
		l-6.6,3.4c-0.4,0.2-0.6,0.5-0.6,0.7c0,0.3,0.1,0.4,0.7,0.4h7.6c1.4,0,2.3,0.1,2.3,1.6v0.2c0,1.4-0.8,2.2-2.3,2.2h-8
		c-2.8,0-4-1.3-4-3.9c0-1.8,0.6-3.4,2.9-4.5l6.6-3.4c0.4-0.2,0.6-0.5,0.6-0.7c0-0.2-0.2-0.4-0.7-0.4h-6.6c-1.4,0-1.4-0.1-1.4-1.5
		V34.3z"/>
	<path class="st14" d="M217.8,40.3c-0.2,1.4-0.6,1.7-2.1,1.7h-8.2v0.5c0,1.7,1.3,2.4,4.2,2.4c1.2,0,2.6-0.2,4-0.4
		c1.4-0.3,1.8,0,1.8,1.5v0.4c0,1.4-0.4,1.7-1.8,2.1c-1.1,0.3-2.3,0.4-3.9,0.4c-5.8,0-8.3-2.1-8.3-7.1v-2.6c0-4.8,2.4-7.2,7.4-7.2
		c4.7,0,7,2.3,7,6.9C217.9,39.5,217.8,39.9,217.8,40.3z M207.5,39h6v-0.8c0-1.6-0.9-2.4-3-2.4c-2.1,0-3,0.8-3,2.4V39z"/>
	<path class="st14" d="M171.5,41.3v-3.6c0-4-2.8-5.5-7.8-5.5c-0.9,0-1.7,0.1-2.5,0.2c-1.4,0.2-1.6,0.6-1.6,2v0.1
		c0,1.4,0.3,1.7,1.7,1.5c1-0.1,2-0.2,2.9-0.2c2.2,0,3.4,0.4,3.4,2V39H164c-4.3,0-6.5,1.6-6.5,4.9c0,3.4,2.1,5,7,5
		c1.6,0,3-0.2,4.1-0.6L171.5,41.3z M167.5,43.5c0,1.7-1.4,1.9-3,1.9c-1.6,0-2.7-0.1-2.8-1.7c0-1.2,0.7-1.8,2.2-1.8h3.6V43.5z"/>
	<linearGradient id="SVGID_15_" gradientUnits="userSpaceOnUse" x1="171.9681" y1="46.4722" x2="177.0065" y2="46.4722">
		<stop  offset="0" style="stop-color:#ADC637"/>
		<stop  offset="1" style="stop-color:#00AA96"/>
	</linearGradient>
	<path class="st15" d="M172.7,44.7c1-1,2.5-1,3.5,0c1,1,1,2.5,0,3.5c-1,1-2.5,1-3.5,0C171.7,47.2,171.7,45.7,172.7,44.7z"/>
	<path class="st14" d="M182.5,46.8c0,1.4-0.1,2.2-1.5,2.2h-0.6c-1.4,0-1.9-0.8-1.9-2.2v-8.2c0-4.2,2.4-6.5,6.9-6.5
		c2.2,0,3.9,0.7,4.8,2.1c1-1.4,2.4-2.1,4.6-2.1c4.7,0,6.7,2.1,6.7,6.5v8.2c0,1.4-0.1,2.2-1.5,2.2h-0.6c-1.4,0-1.9-0.8-1.9-2.2v-8.2
		c0-1.8-0.3-2.5-2.4-2.5c-2.2,0-2.6,0.7-2.6,2.5v8.2c0,1.4-0.6,2.2-2.1,2.2h-0.5c-1.4,0-1.4-0.8-1.4-2.2v-8.2c0-1.8-0.8-2.5-3-2.5
		c-2.1,0-3,0.7-3,2.5V46.8z"/>
	<linearGradient id="SVGID_16_" gradientUnits="userSpaceOnUse" x1="34.2114" y1="23.895" x2="36.8427" y2="23.895">
		<stop  offset="0" style="stop-color:#E75471"/>
		<stop  offset="1" style="stop-color:#C31A7F"/>
	</linearGradient>
	<circle class="st16" cx="35.5" cy="23.9" r="1.5"/>
	<linearGradient id="SVGID_17_" gradientUnits="userSpaceOnUse" x1="37.1623" y1="20.0536" x2="41.0127" y2="20.0536">
		<stop  offset="0" style="stop-color:#0F9CC4"/>
		<stop  offset="1" style="stop-color:#0E74B4"/>
	</linearGradient>
	<circle class="st17" cx="39.1" cy="20.1" r="2.1"/>
	<linearGradient id="SVGID_18_" gradientUnits="userSpaceOnUse" x1="30.6604" y1="16.8448" x2="36.1973" y2="16.8448">
		<stop  offset="0" style="stop-color:#F3A41E"/>
		<stop  offset="1" style="stop-color:#EC7E35"/>
	</linearGradient>
	<circle class="st18" cx="33.3" cy="16.8" r="2.9"/>
</g>
</svg>
