<?xml version="1.0" encoding="utf-8"?>
<!-- Generator: Adobe Illustrator 19.2.1, SVG Export Plug-In . SVG Version: 6.00 Build 0)  -->
<svg version="1.1" id="Layer_1" xmlns="http://www.w3.org/2000/svg" xmlns:xlink="http://www.w3.org/1999/xlink" x="0px" y="0px"
	 viewBox="0 0 200 200" style="enable-background:new 0 0 200 200;" xml:space="preserve">
<style type="text/css">
	.st0{fill:#FFFFFF;}
</style>
<g>
	<path class="st0" d="M181.4,146.2c-0.6-1.1-1.8-1.7-3-1.7h-14.6L156,66.9c-1.7-16.7-15.6-29.2-32.3-29.2h-8.9
		c-4.1-2.3-9.1-3.6-14.8-3.6s-10.7,1.2-14.8,3.6h-8.9c-16.8,0-30.6,12.6-32.3,29.2l-7.8,77.6H21.6c-1.2,0-2.4,0.6-3,1.7
		c-0.6,1.1-0.7,2.4-0.2,3.5l7.1,14.3c0.6,1.2,1.8,2,3.2,2h142.5c1.3,0,2.6-0.8,3.2-2l7.1-14.3C182.1,148.6,182.1,147.3,181.4,146.2
		L181.4,146.2z M51.1,67.6c1.3-13,12.1-22.8,25.2-22.8h1.5c-1.8,3.1-2.8,6.7-2.8,10.7c0,2,1.6,3.6,3.6,3.6s3.6-1.6,3.6-3.6
		c0-10.5,9.2-14.3,17.8-14.3s17.8,3.7,17.8,14.3c0,2,1.6,3.6,3.6,3.6c2,0,3.6-1.6,3.6-3.6c0-4-0.9-7.6-2.8-10.7h1.5
		c13.1,0,23.9,9.8,25.2,22.8l7.7,76.9H43.4L51.1,67.6L51.1,67.6z M169.1,158.8H30.9l-3.6-7.1h145.2L169.1,158.8z"/>
	<path class="st0" d="M121.4,66.2c-2,0-3.6,1.6-3.6,3.6V116c0,2,1.6,3.6,3.6,3.6c2,0,3.6-1.6,3.6-3.6V69.7
		C124.9,67.8,123.3,66.2,121.4,66.2z"/>
	<path class="st0" d="M78.6,66.2c-2,0-3.6,1.6-3.6,3.6V116c0,2,1.6,3.6,3.6,3.6c2,0,3.6-1.6,3.6-3.6V69.7
		C82.2,67.8,80.6,66.2,78.6,66.2z"/>
	<path class="st0" d="M121.4,126.7c-2,0-3.6,1.6-3.6,3.6v7.1c0,2,1.6,3.6,3.6,3.6c2,0,3.6-1.6,3.6-3.6v-7.1
		C124.9,128.3,123.3,126.7,121.4,126.7z"/>
	<path class="st0" d="M78.6,126.7c-2,0-3.6,1.6-3.6,3.6v7.1c0,2,1.6,3.6,3.6,3.6c2,0,3.6-1.6,3.6-3.6v-7.1
		C82.2,128.3,80.6,126.7,78.6,126.7z"/>
</g>
</svg>
